<?xml version="1.0" encoding="UTF-8"?>
<svg xmlns="http://www.w3.org/2000/svg" xmlns:xlink="http://www.w3.org/1999/xlink" viewBox="0 0 1024 1024"><defs><style>.cls-1 {fill: #23c9dc;}.cls-2 {fill: url(#gradient1);}.cls-3 {fill: #ffc131;}.cls-4 {fill: url(#gradient2);}</style><linearGradient id="gradient2" x1="153.89" y1="870.11" x2="870.11" y2="153.89" gradientUnits="userSpaceOnUse"><stop offset="0" stop-color="#0b6a75"/><stop offset="1" stop-color="#886613"/></linearGradient><linearGradient id="gradient1" x1="88.31" y1="478.86" x2="451.33" y2="115.84" gradientUnits="userSpaceOnUse"><stop offset="0" stop-color="#23c9dc"/><stop offset="1" stop-color="#ffc131"/></linearGradient></defs><rect class="cls-4" x="102" y="102" width="820" height="820" rx="177.15" ry="177.15"/><path class="cls-1" d="m455.51,810.97l-11.44-113.96h-74.36l-39.6,113.96h-47.08l132.44-355.52h46.64l39.6,355.52h-46.2Zm-52.36-211.2l-19.36,55.44h55.88l-5.28-51.04c-.88-7.62-1.76-16.5-2.64-26.62s-1.69-20.24-2.42-30.36c-.74-10.12-.96-18.99-.66-26.62-2.06,7.63-4.62,16.43-7.7,26.4-3.08,9.98-6.24,19.66-9.46,29.04-3.23,9.39-6.02,17.31-8.36,23.76h0Z"/><path class="cls-3" d="m763.24,348.01h59.26l6.17-56.17h-167.9l8.02-78.39h-56.79l-8.02,78.39h-167.9l-6.17,56.17h56.17v.04h59.26v-.04h155.56c-21.41,72.43-50.42,136.42-87.04,191.97-11.19-20.74-21.32-42.37-30.41-64.89-9.62-23.85-18.02-48.73-25.28-74.59h-59.9c6.53,24.9,14.06,49.39,22.69,73.43,14.6,40.74,33.02,80.25,55.25,118.52-52.68,64.62-119.75,119.56-201.23,164.81l30.25,53.7c81.48-45.27,149.58-100.81,204.32-166.67,20.16,29.22,43.1,57.52,68.83,84.88,25.72,27.37,54.42,54.01,86.11,79.94l35.8-49.38c-31.28-26.33-59.68-53.09-85.19-80.25-25.52-27.16-48.15-55.35-67.9-84.57,24.27-34.98,45.88-72.94,64.81-113.89,18.93-40.94,36-85.28,51.23-133.02h0Z"/><path class="cls-2" d="m194.5,369.99c0-10.43,1.1-65.73,45.81-110.41,44.78-44.75,101.29-45.74,111.69-45.73v61.23c-60.09.5-92.09,44.92-92.53,99.9h-64.98v-4.98s.01,0,.01,0Z"/></svg>