<?xml version="1.0" encoding="utf-8"?>
<!DOCTYPE svg PUBLIC "-//W3C//DTD SVG 20010904//EN" "http://www.w3.org/TR/2001/REC-SVG-20010904/DTD/svg10.dtd">
<svg version="1.0" xmlns="http://www.w3.org/2000/svg" width="64pt" height="64pt" viewBox="0 0 64 64" style="" preserveAspectRatio="xMidYMid meet">
<g fill="#44515CFF" stroke="#44515CFF">
<path d="M 57.000 50.709 C 56.175 51.013 54.728 51.933 53.785 52.754 C 52.329 54.021 49.272 54.136 33.535 53.515 C 21.047 53.022 15.000 53.118 15.000 53.810 C 15.000 55.851 24.360 60.391 32.500 62.299 C 33.930 62.634 33.678 62.801 31.616 62.884 C 28.554 63.007 20.839 61.048 20.000 59.933 C 19.725 59.568 18.488 58.954 17.250 58.567 C 13.380 57.360 14.769 59.764 18.750 61.164 L 22.500 62.483 17.500 63.084 C 14.750 63.415 21.136 63.756 31.691 63.843 C 43.783 63.942 51.114 63.624 51.510 62.984 C 51.856 62.425 52.476 62.176 52.890 62.432 C 54.278 63.290 59.888 59.118 61.477 56.044 C 62.343 54.370 62.760 53.000 62.403 53.000 C 62.047 53.000 62.315 52.325 63.000 51.500 C 64.059 50.224 63.816 50.012 61.372 50.079 C 59.793 50.122 57.825 50.406 57.000 50.709 M 28.228 58.172 C 27.113 59.287 18.756 56.203 19.524 54.961 C 19.805 54.506 22.088 54.833 24.597 55.688 C 27.410 56.646 28.802 57.598 28.228 58.172 "/></g>
<g fill="#FF3549FF" stroke="#FF3549FF">
<path d="M 20.493 10.351 C 17.739 11.634 13.942 14.442 12.056 16.592 L 8.627 20.500 22.064 20.453 C 35.141 20.406 39.691 19.574 47.250 15.846 C 48.724 15.119 49.000 15.467 49.000 18.055 C 49.000 20.909 49.227 21.105 52.199 20.813 L 55.398 20.500 51.956 16.592 C 44.529 8.157 30.977 5.469 20.493 10.351 "/></g>
<g fill="#161C21FF" stroke="#161C21FF">
<path d="M 14.440 46.042 C 14.711 48.815 15.200 51.515 15.526 52.042 C 16.308 53.307 53.687 53.315 54.469 52.050 C 55.167 50.921 51.434 48.750 48.543 48.603 C 47.421 48.547 46.458 47.825 46.403 47.000 C 46.349 46.175 46.236 45.895 46.152 46.379 C 45.975 47.402 34.542 46.089 28.000 44.293 C 26.625 43.916 25.050 43.549 24.500 43.479 C 23.950 43.409 21.700 42.825 19.500 42.181 C 13.834 40.524 13.894 40.478 14.440 46.042 "/></g>
<g fill="#FF9E69FF" stroke="#FF9E69FF">
<path d="M 10.428 36.116 C 10.219 36.455 8.863 36.505 7.414 36.228 C 4.890 35.746 4.810 35.866 5.480 39.112 C 6.725 45.143 9.316 49.474 11.898 49.839 C 14.207 50.165 14.273 50.006 13.661 45.540 L 13.025 40.902 17.732 41.201 C 22.234 41.487 22.461 41.373 22.969 38.580 L 23.500 35.659 17.154 35.580 C 13.664 35.536 10.637 35.777 10.428 36.116 "/></g>
<g fill="#697F90FF" stroke="#697F90FF">
<path d="M 1.515 52.250 C 3.446 58.938 9.621 63.052 17.500 62.901 L 22.500 62.806 18.750 61.267 C 15.249 59.831 15.000 59.447 15.000 55.495 C 15.000 51.380 14.895 51.244 11.250 50.642 C 9.188 50.301 6.007 50.017 4.183 50.011 C 1.215 50.001 0.934 50.237 1.515 52.250 "/></g>
<g fill="#3B4751FF" stroke="#3B4751FF">
<path d="M 43.097 19.175 C 44.120 19.890 43.755 20.037 41.750 19.717 C 40.238 19.475 39.000 19.691 39.000 20.198 C 39.000 20.704 38.596 20.869 38.103 20.564 C 36.911 19.827 26.839 28.930 27.558 30.094 C 27.866 30.592 27.566 31.000 26.892 31.000 C 26.218 31.000 25.915 31.248 26.218 31.551 C 26.520 31.854 30.490 31.152 35.038 29.990 C 41.760 28.274 43.483 28.124 44.248 29.189 C 44.927 30.136 45.025 29.994 44.598 28.678 C 44.273 27.675 44.393 26.100 44.865 25.178 C 45.337 24.255 45.991 22.375 46.317 21.000 C 46.830 18.843 46.553 18.479 44.302 18.346 C 42.332 18.230 42.037 18.433 43.097 19.175 "/></g>
<g fill="#FF9E69FF" stroke="#FF9E69FF">
<path d="M 47.901 37.184 C 47.406 38.111 47.000 40.873 47.000 43.323 C 47.000 47.626 47.119 47.800 50.517 48.437 C 52.451 48.800 54.470 48.827 55.004 48.498 C 56.248 47.729 59.378 37.044 58.590 36.257 C 58.263 35.929 55.926 35.625 53.399 35.581 C 50.055 35.522 48.557 35.959 47.901 37.184 "/></g>
<g fill="#26333EFF" stroke="#26333EFF">
<path d="M 44.145 27.138 C 44.065 27.489 39.988 28.768 35.084 29.979 C 27.053 31.964 26.046 32.475 24.949 35.123 C 24.279 36.741 23.919 38.252 24.149 38.482 C 24.558 38.891 42.856 34.492 43.484 33.834 C 43.659 33.650 43.912 31.925 44.047 30.000 C 44.181 28.075 44.225 26.787 44.145 27.138 "/></g>
<g fill="#161C21FF" stroke="#161C21FF">
<path d="M 33.551 36.527 C 28.630 37.817 24.242 38.650 23.801 38.377 C 23.361 38.105 23.007 38.921 23.015 40.191 C 23.024 41.461 23.361 42.050 23.765 41.500 C 25.821 38.702 31.743 39.113 38.603 42.531 C 44.355 45.396 44.693 45.454 44.481 43.536 C 44.357 42.416 44.198 39.813 44.128 37.750 C 44.057 35.688 43.663 34.041 43.250 34.091 C 42.838 34.140 38.473 35.237 33.551 36.527 "/></g>
<g fill="#FF9E69FF" stroke="#FF9E69FF">
<path d="M 25.239 41.326 C 23.198 42.460 24.013 42.797 33.648 44.799 C 39.517 46.018 44.498 46.835 44.718 46.615 C 45.522 45.812 32.604 40.001 30.090 40.035 C 28.666 40.055 26.483 40.636 25.239 41.326 "/></g>
<g fill="#FF424DFF" stroke="#FF424DFF">
<path d="M 7.998 22.750 C 8.000 23.677 10.956 24.000 19.441 24.000 C 34.948 24.000 35.423 22.205 20.021 21.809 C 10.902 21.575 7.997 21.802 7.998 22.750 "/></g>
<g fill="#FF4B50FF" stroke="#FF4B50FF">
<path d="M 6.998 24.750 C 6.999 25.674 9.856 26.000 17.941 26.000 C 32.779 26.000 33.253 24.208 18.519 23.811 C 9.801 23.576 6.997 23.804 6.998 24.750 "/></g>
<g fill="#FF5452FF" stroke="#FF5452FF">
<path d="M 6.000 27.000 C 6.000 28.332 27.676 28.332 28.500 27.000 C 28.898 26.355 25.010 26.000 17.559 26.000 C 10.520 26.000 6.000 26.391 6.000 27.000 "/></g>
<g fill="#FF6F5AFF" stroke="#FF6F5AFF">
<path d="M 14.325 30.658 C 14.687 31.020 14.481 31.920 13.869 32.658 C 12.958 33.755 13.850 34.000 18.761 34.000 C 23.926 34.000 24.840 33.720 25.290 32.000 C 25.770 30.162 25.320 30.000 19.740 30.000 C 16.400 30.000 13.963 30.296 14.325 30.658 "/></g>
<g fill="#FF6F5AFF" stroke="#FF6F5AFF">
<path d="M 48.000 32.000 C 48.000 33.758 48.667 34.000 53.500 34.000 C 58.333 34.000 59.000 33.758 59.000 32.000 C 59.000 30.242 58.333 30.000 53.500 30.000 C 48.667 30.000 48.000 30.242 48.000 32.000 "/></g>
<g fill="#FF5D55FF" stroke="#FF5D55FF">
<path d="M 6.000 29.000 C 6.000 29.603 10.167 30.000 16.500 30.000 C 22.833 30.000 27.000 29.603 27.000 29.000 C 27.000 28.397 22.833 28.000 16.500 28.000 C 10.167 28.000 6.000 28.397 6.000 29.000 "/></g>
<g fill="#161C21FF" stroke="#161C21FF">
<path d="M 47.364 18.574 C 46.633 20.549 46.497 23.764 46.982 27.574 L 47.738 33.500 48.016 28.000 C 48.169 24.975 48.340 20.925 48.397 19.000 L 48.500 15.500 47.364 18.574 "/></g>
<g fill="#FF5452FF" stroke="#FF5452FF">
<path d="M 48.000 27.000 C 48.000 27.550 50.250 28.000 53.000 28.000 C 55.750 28.000 58.000 27.550 58.000 27.000 C 58.000 26.450 55.750 26.000 53.000 26.000 C 50.250 26.000 48.000 26.450 48.000 27.000 "/></g>
<g fill="#51616FFF" stroke="#51616FFF">
<path d="M 19.524 54.961 C 18.756 56.203 27.113 59.287 28.228 58.172 C 28.802 57.598 27.410 56.646 24.597 55.688 C 22.088 54.833 19.805 54.506 19.524 54.961 "/></g>
<g fill="#FF5D55FF" stroke="#FF5D55FF">
<path d="M 48.000 29.000 C 48.000 29.550 50.250 30.000 53.000 30.000 C 55.750 30.000 58.000 29.550 58.000 29.000 C 58.000 28.450 55.750 28.000 53.000 28.000 C 50.250 28.000 48.000 28.450 48.000 29.000 "/></g>
<g fill="#FF4B50FF" stroke="#FF4B50FF">
<path d="M 52.250 23.807 C 46.545 24.220 46.807 26.000 52.573 26.000 C 55.738 26.000 57.047 25.615 56.823 24.750 C 56.612 23.933 55.029 23.606 52.250 23.807 "/></g>
<g fill="#FF424DFF" stroke="#FF424DFF">
<path d="M 52.250 21.813 C 47.847 22.238 48.108 24.000 52.573 24.000 C 54.938 24.000 56.037 23.577 55.823 22.750 C 55.626 21.986 54.237 21.622 52.250 21.813 "/></g>
<g fill="#51616FFF" stroke="#51616FFF">
<path d="M 24.000 60.767 C 24.000 62.007 27.523 63.002 31.500 62.884 L 34.500 62.795 31.500 61.974 C 29.850 61.522 27.488 60.840 26.250 60.459 C 24.955 60.061 24.000 60.191 24.000 60.767 "/></g>
<g fill="#FF6F5AFF" stroke="#FF6F5AFF">
<path d="M 5.500 31.000 C 5.840 31.550 7.415 32.000 9.000 32.000 C 10.585 32.000 12.160 31.550 12.500 31.000 C 12.874 30.395 11.491 30.000 9.000 30.000 C 6.509 30.000 5.126 30.395 5.500 31.000 "/></g>
<g fill="#44515CFF" stroke="#44515CFF">
<path d="M 44.458 18.068 C 44.095 18.656 43.183 18.900 42.431 18.612 C 41.679 18.323 40.798 18.518 40.473 19.044 C 39.586 20.479 43.152 20.128 46.000 18.500 C 47.821 17.459 48.041 17.061 46.809 17.035 C 45.879 17.016 44.821 17.481 44.458 18.068 "/></g>
<g fill="#51616FFF" stroke="#51616FFF">
<path d="M 15.000 56.465 C 15.000 57.309 15.188 58.000 15.418 58.000 C 15.648 58.000 16.548 58.273 17.418 58.607 C 19.717 59.489 19.360 57.263 17.000 56.000 C 15.404 55.146 15.000 55.240 15.000 56.465 "/></g>
<g fill="#697F90FF" stroke="#697F90FF">
<path d="M 19.638 59.500 C 19.955 60.325 21.178 60.986 22.357 60.968 C 24.456 60.937 24.461 60.907 22.559 59.468 C 20.068 57.584 18.908 57.597 19.638 59.500 "/></g>
<g fill="#44515CFF" stroke="#44515CFF">
<path d="M -0.000 49.874 C -0.000 50.354 1.463 50.400 3.250 49.976 L 6.500 49.205 3.250 49.102 C 1.463 49.046 -0.000 49.393 -0.000 49.874 "/></g>
<g fill="#44515CFF" stroke="#44515CFF">
<path d="M 1.000 26.878 C 1.000 27.495 1.498 28.000 2.107 28.000 C 2.716 28.000 2.972 28.631 2.676 29.402 C 2.380 30.173 2.415 31.082 2.755 31.421 C 3.094 31.760 3.503 31.176 3.663 30.123 C 3.824 29.070 3.291 27.656 2.478 26.982 C 1.447 26.126 1.000 26.095 1.000 26.878 "/></g>
<g fill="#44515CFF" stroke="#44515CFF">
<path d="M 41.405 4.750 C 42.453 5.988 44.028 6.964 44.905 6.921 C 46.259 6.854 46.273 6.759 45.000 6.291 C 44.175 5.987 42.600 5.010 41.500 4.120 C 39.517 2.514 39.516 2.519 41.405 4.750 "/></g>
<g fill="#3B4751FF" stroke="#3B4751FF">
<path d="M 46.031 33.000 C 46.031 33.825 46.467 35.175 47.000 36.000 C 47.862 37.333 47.969 37.333 47.969 36.000 C 47.969 35.175 47.533 33.825 47.000 33.000 C 46.138 31.667 46.031 31.667 46.031 33.000 "/></g>
<g fill="#51616FFF" stroke="#51616FFF">
<path d="M 5.800 34.200 C 6.733 35.133 7.267 35.133 8.200 34.200 C 9.133 33.267 8.867 33.000 7.000 33.000 C 5.133 33.000 4.867 33.267 5.800 34.200 "/></g>
<g fill="#44515CFF" stroke="#44515CFF">
<path d="M 5.000 59.000 L 7.000 61.000 5.000 59.000 L 3.000 57.000 5.000 59.000 "/></g>
<g fill="#44515CFF" stroke="#44515CFF">
<path d="M 31.000 24.888 L 29.500 26.563 31.000 24.888 L 32.500 23.212 31.000 24.888 "/></g>
<g fill="#44515CFF" stroke="#44515CFF">
<path d="M 59.603 20.167 C 59.886 20.625 60.541 21.000 61.059 21.000 C 61.577 21.000 62.000 20.625 62.000 20.167 C 62.000 19.708 61.345 19.333 60.544 19.333 C 59.743 19.333 59.320 19.708 59.603 20.167 "/></g>
<g fill="#FF5D55FF" stroke="#FF5D55FF">
<path d="M 45.710 28.681 C 45.302 29.330 45.468 30.171 46.080 30.549 C 46.781 30.983 47.056 30.546 46.823 29.368 C 46.573 28.106 46.212 27.883 45.710 28.681 "/></g>
<g fill="#3B4751FF" stroke="#3B4751FF">
<path d="M 21.624 41.799 C 21.212 42.466 21.390 43.000 22.024 43.000 C 22.653 43.000 22.987 42.460 22.766 41.799 C 22.455 40.865 22.202 40.865 21.624 41.799 "/></g>
</svg>
