<?xml version="1.0" standalone="no"?><!DOCTYPE svg PUBLIC "-//W3C//DTD SVG 1.1//EN" "http://www.w3.org/Graphics/SVG/1.1/DTD/svg11.dtd"><svg t="1685678520104" class="icon" viewBox="0 0 1024 1024" version="1.1" xmlns="http://www.w3.org/2000/svg" p-id="3713" data-darkreader-inline-fill="" xmlns:xlink="http://www.w3.org/1999/xlink" width="200" height="200"><path d="M931.84 1024H92.16C40.96 1024 0 983.04 0 931.84V92.16C0 40.96 40.96 0 92.16 0h837.12c51.2 0 92.16 40.96 92.16 92.16v837.12c2.56 53.76-38.4 94.72-89.6 94.72z" fill="#D20B0A" p-id="3714" data-darkreader-inline-fill="" style="--darkreader-inline-fill: #a80908;"></path><path d="M552.96 632.32c33.28-40.96 43.52-74.24 30.72-99.84-15.36-28.16-35.84-51.2-71.68-56.32-2.56 23.04-5.12 43.52-7.68 56.32 17.92 15.36 33.28 25.6 40.96 38.4 10.24 15.36-2.56 38.4-20.48 38.4-35.84 0-64-30.72-58.88-66.56 0-7.68 0-12.8 2.56-20.48 17.92-81.92-35.84-110.08-97.28-110.08-43.52 0-87.04 7.68-130.56 10.24 5.12-35.84 35.84-38.4 66.56-38.4 51.2-2.56 99.84-5.12 151.04-10.24 17.92-2.56 38.4-5.12 35.84-30.72H294.4c5.12-12.8 10.24-23.04 17.92-38.4-20.48-10.24-38.4-17.92-61.44-30.72-12.8 71.68-56.32 94.72-122.88 71.68-5.12 58.88 40.96 35.84 71.68 48.64-40.96 51.2-76.8 97.28-117.76 148.48 38.4 7.68 61.44-20.48 97.28-38.4-15.36 79.36-28.16 151.04-43.52 222.72 30.72 7.68 56.32-5.12 69.12-35.84 7.68-20.48 10.24-40.96 17.92-58.88 23.04-71.68 99.84-122.88 179.2-104.96-2.56 10.24-2.56 17.92-5.12 28.16-20.48 0-40.96 0-58.88 2.56-33.28 5.12-61.44 20.48-69.12 56.32-7.68 33.28 2.56 61.44 30.72 81.92 40.96 28.16 89.6 38.4 143.36 38.4 5.12-28.16 7.68-56.32 12.8-87.04 12.8 7.68 20.48 12.8 30.72 15.36 74.24 40.96 151.04 76.8 238.08 87.04 84.48 10.24 158.72-15.36 217.6-76.8 5.12-5.12 10.24-15.36 12.8-23.04-143.36 76.8-273.92 53.76-401.92-17.92zM391.68 463.36c-53.76 20.48-107.52 40.96-158.72 58.88-5.12-35.84 0-53.76 38.4-61.44 28.16-7.68 58.88-7.68 87.04-7.68h12.8c30.72 0 20.48 10.24 20.48 10.24zM384 611.84c-5.12 25.6-7.68 51.2-12.8 76.8h-12.8c-2.56 0-2.56 0-5.12-2.56-2.56 0-5.12-2.56-5.12-2.56s-2.56 0-2.56-2.56c0 0-2.56 0-2.56-2.56 0 0-2.56 0-2.56-2.56h-2.56l-2.56-2.56c-2.56 0-2.56-2.56-2.56-2.56-2.56-2.56-5.12-5.12-5.12-7.68l-2.56-2.56s0-2.56-2.56-2.56C320 652.8 320 645.12 320 640v-2.56c2.56-28.16 25.6-35.84 64-25.6z" fill="#FFFFFF" p-id="3715" data-darkreader-inline-fill="" style="--darkreader-inline-fill: #181a1b;"></path><path d="M924.16 340.48c-28.16 2.56-53.76 2.56-87.04 5.12 12.8-17.92 20.48-28.16 28.16-40.96-20.48-10.24-38.4-17.92-56.32-25.6-30.72 20.48-33.28 64-74.24 71.68-5.12-23.04-7.68-46.08-10.24-66.56-53.76 7.68-56.32 12.8-46.08 69.12h-81.92c0 33.28 7.68 40.96 43.52 40.96h74.24c0 2.56 2.56 7.68 2.56 10.24-15.36 5.12-33.28 10.24-48.64 17.92-15.36 7.68-40.96 17.92-43.52 30.72-12.8 56.32-17.92 115.2-25.6 176.64 76.8 48.64 161.28 40.96 250.88 28.16 5.12-33.28 7.68-61.44 12.8-89.6 2.56-28.16 10.24-56.32 10.24-84.48 2.56-40.96-12.8-58.88-51.2-66.56-15.36-2.56-33.28-5.12-48.64-7.68 0-2.56-2.56-5.12-2.56-7.68 15.36-5.12 30.72-10.24 48.64-12.8 28.16-5.12 56.32-5.12 81.92-10.24 12.8-7.68 30.72-12.8 23.04-38.4zM788.48 614.4c-43.52 17.92-84.48 12.8-125.44 0 0-2.56 2.56-5.12 5.12-7.68 2.56-2.56 2.56-5.12 5.12-7.68l2.56-2.56 2.56-2.56 2.56-2.56c2.56-2.56 5.12-2.56 7.68-5.12 0 0 2.56 0 2.56-2.56 5.12-2.56 7.68-2.56 12.8-5.12h53.76c10.24 0 20.48 2.56 33.28 5.12-2.56 0 30.72 7.68-2.56 30.72z m-5.12-79.36s-2.56 0 0 0h-7.68c-5.12 0-7.68 2.56-12.8 2.56-7.68 2.56-17.92 2.56-25.6 5.12l-53.76 7.68c-5.12 0-7.68 2.56-12.8 2.56v-12.8c0-2.56 0-5.12 2.56-7.68 5.12-10.24 12.8-15.36 25.6-20.48 2.56 0 2.56 0 5.12-2.56h17.92c25.6-2.56 51.2 0 76.8 0 38.4 0-2.56 20.48-15.36 25.6z m17.92-74.24c-40.96 7.68-81.92 15.36-120.32 23.04-5.12-23.04 5.12-35.84 30.72-40.96 46.08-12.8 74.24-7.68 89.6 17.92z m-284.16-33.28l7.68-61.44c46.08 10.24 74.24 58.88 61.44 107.52-12.8-7.68-23.04-15.36-33.28-23.04-10.24-7.68-23.04-12.8-35.84-23.04zM320 660.48c2.56 2.56 2.56 5.12 5.12 7.68 0-2.56-2.56-5.12-5.12-7.68z m51.2 28.16c-20.48-5.12-35.84-10.24-46.08-20.48 10.24 10.24 25.6 17.92 46.08 20.48z" fill="#FFFFFF" p-id="3716" data-darkreader-inline-fill="" style="--darkreader-inline-fill: #181a1b;"></path><path d="M673.28 596.48c-2.56 2.56-5.12 5.12-5.12 7.68 0-2.56 2.56-5.12 5.12-7.68z m110.08-61.44z m-99.84 17.92c-5.12 0-7.68 2.56-12.8 2.56 5.12-2.56 7.68-2.56 12.8-2.56z m94.72-17.92c0 2.56 0 2.56 0 0-5.12 2.56-10.24 2.56-15.36 5.12 5.12-2.56 10.24-2.56 15.36-5.12 0 2.56 0 2.56 0 0z m2.56 0s-2.56 0 0 0c-2.56 0 0 0 0 0z m0 0z m15.36-28.16c-25.6 0-51.2-2.56-76.8 0h-7.68 7.68c25.6-2.56 53.76 0 76.8 0z m-15.36 28.16z m0 0z m2.56 0z" fill="#FFFFFF" p-id="3717" data-darkreader-inline-fill="" style="--darkreader-inline-fill: #e8e6e3;"></path></svg>