<svg xmlns="http://www.w3.org/2000/svg"  viewBox="0 0 48 48" width="240px" height="240px" baseProfile="basic"><linearGradient id="seOX3lG8qv6PSIQswlKzSa" x1="24" x2="24" y1="-8.511" y2="389.303" gradientUnits="userSpaceOnUse"><stop offset="0" stop-color="#9ca5ad"/><stop offset="1" stop-color="#cdd2d6"/></linearGradient><path fill="url(#seOX3lG8qv6PSIQswlKzSa)" d="M41,5c0-1.657-1.343-3-3-3H10C8.343,2,7,3.343,7,5v10.82c10.369,1.258,24.02,5.108,34,11.518 V5z"/><linearGradient id="seOX3lG8qv6PSIQswlKzSb" x1="24" x2="24" y1="-1.872" y2="78.134" gradientUnits="userSpaceOnUse"><stop offset=".9" stop-color="#6d7882"/><stop offset=".917" stop-color="#45494d"/></linearGradient><path fill="url(#seOX3lG8qv6PSIQswlKzSb)" d="M7,15.82V43c0,1.657,1.343,3,3,3h28 c1.657,0,3-1.343,3-3V27.338C31.02,20.928,17.369,17.078,7,15.82z"/><linearGradient id="seOX3lG8qv6PSIQswlKzSc" x1="32.469" x2="32.469" y1="-2.894" y2="44.47" gradientUnits="userSpaceOnUse"><stop offset=".263" stop-color="#1fa0e5"/><stop offset=".655" stop-color="#20a2e6"/><stop offset=".797" stop-color="#25a9e8"/><stop offset=".898" stop-color="#2db4ec"/><stop offset=".979" stop-color="#38c5f2"/><stop offset="1" stop-color="#3ccbf4"/></linearGradient><polygon fill="url(#seOX3lG8qv6PSIQswlKzSc)" points="34.8,6.709 34.698,10.359 37.647,12.513 34.144,13.543 33.006,17.013 30.944,14 27.292,13.991 29.521,11.098 28.401,7.622 31.841,8.848"/><linearGradient id="seOX3lG8qv6PSIQswlKzSd" x1="21.59" x2="21.59" y1="-3.894" y2="43.47" gradientUnits="userSpaceOnUse"><stop offset=".263" stop-color="#1fa0e5"/><stop offset=".655" stop-color="#20a2e6"/><stop offset=".797" stop-color="#25a9e8"/><stop offset=".898" stop-color="#2db4ec"/><stop offset=".979" stop-color="#38c5f2"/><stop offset="1" stop-color="#3ccbf4"/></linearGradient><path fill="url(#seOX3lG8qv6PSIQswlKzSd)" d="M21.238,23.896l3.053,4.679 c0.087,0.134,0.234,0.216,0.394,0.22l5.585,0.137c0.402,0.01,0.617,0.476,0.365,0.789l-3.506,4.35 c-0.1,0.124-0.133,0.29-0.087,0.443l1.595,5.354c0.115,0.385-0.262,0.734-0.637,0.591l-5.22-1.991 c-0.149-0.057-0.316-0.037-0.448,0.054l-4.599,3.172c-0.331,0.228-0.779-0.022-0.759-0.423l0.28-5.58 c0.008-0.159-0.063-0.312-0.19-0.409l-4.438-3.394c-0.319-0.244-0.22-0.748,0.168-0.853l5.393-1.458 c0.154-0.042,0.278-0.156,0.331-0.307L20.375,24C20.508,23.621,21.018,23.56,21.238,23.896z"/><polygon fill="none" stroke="#fff" stroke-linecap="round" stroke-linejoin="round" stroke-miterlimit="10" stroke-width="2" points="34.8,6.709 34.698,10.359 37.647,12.513 34.144,13.543 33.006,17.013 30.944,14 27.292,13.991 29.521,11.098 28.401,7.622 31.841,8.848"/><path fill="none" stroke="#fff" stroke-linecap="round" stroke-linejoin="round" stroke-miterlimit="10" stroke-width="2" d="M21.238,23.896l3.053,4.679c0.087,0.134,0.234,0.216,0.394,0.22l5.585,0.137c0.402,0.01,0.617,0.476,0.365,0.789l-3.506,4.35 c-0.1,0.124-0.133,0.29-0.087,0.443l1.595,5.354c0.115,0.385-0.262,0.734-0.637,0.591l-5.22-1.991 c-0.149-0.057-0.316-0.037-0.448,0.054l-4.599,3.172c-0.331,0.228-0.779-0.022-0.759-0.423l0.28-5.58 c0.008-0.159-0.063-0.312-0.19-0.409l-4.438-3.394c-0.319-0.244-0.22-0.748,0.168-0.853l5.393-1.458 c0.154-0.042,0.278-0.156,0.331-0.307L20.375,24C20.508,23.621,21.018,23.56,21.238,23.896z"/></svg>