<svg width="64" height="64" viewBox="-5 -5 163 110" fill="none" xmlns="http://www.w3.org/2000/svg">
<path fill-rule="evenodd" clip-rule="evenodd" d="M55.7468 90.5378L55.3659 91.2544C54.8863 92.3208 54.7058 93.5367 54.9061 94.7809C55.4562 98.155 58.6386 100.443 62.0099 99.89C63.7449 99.6079 65.1921 98.6289 66.1118 97.2888L66.6084 96.4284L69.8668 90.7662C69.8865 90.7182 69.9092 90.6731 69.9289 90.6251C70.132 90.185 70.3774 89.7704 70.6596 89.3867L76.5079 79.2304L82.3168 89.3189C82.6215 89.7252 82.8838 90.1625 83.101 90.628C83.1349 90.7014 83.1659 90.7746 83.1969 90.848L86.3736 96.3663L86.9406 97.3509C87.8632 98.6628 89.2936 99.6135 91.0004 99.8928C94.3745 100.443 97.554 98.1549 98.1069 94.7836C98.3157 93.5028 98.1155 92.2474 97.5992 91.1556L97.3255 90.6393L88.7631 74.4794L87.8209 72.7021L87.3525 71.8191C86.2382 70.1998 84.7712 68.8399 83.0587 67.8553C81.1319 66.7466 78.8946 66.1119 76.5135 66.1119C74.1268 66.1119 71.8896 66.7494 69.9599 67.8609C68.2249 68.8596 66.7409 70.2421 65.6237 71.8953L64.2978 74.3978L55.7439 90.5462L55.7468 90.5378Z" fill="#5111FF"/>
<path fill-rule="evenodd" clip-rule="evenodd" d="M11.1184 97.5596L65.4883 30.9062C65.6717 30.6635 65.8635 30.4294 66.0638 30.2009C68.6029 27.2866 72.3439 25.4415 76.5164 25.4415C80.6918 25.4415 84.4355 27.2894 86.9774 30.2093C87.1721 30.4322 87.3583 30.6607 87.536 30.8977L89.5418 33.3549L141.737 97.3423L142.332 98.0731C143.46 99.258 145.052 100 146.818 100C150.234 100 153.004 97.2295 153.004 93.8131C153.004 92.5661 152.638 91.4065 152.003 90.4361L151.47 89.7364L108.3 32.8415L99.4639 21.1956L98.564 20.0135L89.5389 8.11657L87.22 5.0612C87.11 4.9286 86.9999 4.79886 86.887 4.66909C84.348 1.80558 80.641 0 76.5108 0C72.3805 0 68.6734 1.80558 66.1343 4.66909C66.0215 4.79322 65.9144 4.92295 65.8072 5.05273L65.1329 5.94145L63.4825 8.11375L54.4377 20.0361L53.5603 21.1928L44.7046 32.8641L1.65318 89.601L0.908484 90.5828C0.332961 91.5222 0 92.6281 0 93.8102C0 97.2267 2.77046 99.9971 6.18692 99.9971C8.05173 99.9971 9.72189 99.1733 10.8588 97.8699L11.1127 97.5596H11.1184Z" fill="#5111FF"/>
<path fill-rule="evenodd" clip-rule="evenodd" d="M64.9326 40.5519L27.7155 89.5983L26.9677 90.5829C26.3922 91.5223 26.0621 92.6282 26.0621 93.8103C26.0621 97.2267 28.8326 99.9972 32.2491 99.9972C34.1139 99.9972 35.7868 99.1706 36.921 97.8673L37.1664 97.5682L66.2839 61.8716C68.8174 59.1012 72.4652 57.3606 76.5164 57.3606C80.5705 57.3606 84.2182 59.1012 86.7516 61.8745L115.686 97.3424L116.278 98.0703C117.407 99.258 119.001 99.9972 120.767 99.9972C124.183 99.9972 126.954 97.2267 126.954 93.8103C126.954 92.5661 126.587 91.4038 125.952 90.4361L125.419 89.7337L86.9802 39.0735C86.8955 38.9776 86.8137 38.8845 86.7263 38.7914C84.1929 36.0323 80.5564 34.303 76.5164 34.303C72.4652 34.303 68.8174 36.0408 66.2839 38.8112C66.2078 38.8959 66.1316 38.9804 66.0554 39.0679L64.9297 40.5519H64.9326Z" fill="#5111FF"/>
</svg>
