<?xml version="1.0" encoding="utf-8"?>
<svg xmlns="http://www.w3.org/2000/svg" xml:space="preserve" id="Capa_1" x="0" y="0" version="1.1" viewBox="-394 635.7 200 200">
  <style>
    .st0{fill:#fff}
  </style>
  <path d="M-217 835.7h-154c-12.7 0-23-10.3-23-23v-154c0-12.7 10.3-23 23-23h154c12.7 0 23 10.3 23 23v154c0 12.7-10.3 23-23 23z"/>
  <path d="M-293.7 683c3.3 0 14-2.1 22.3-14.2 7.1-10.5 6.3-22.2 6.3-22.2s-12.3-.9-23.1 12.5c-7.8 9.8-7.2 23.8-7.2 23.8s.6.1 1.7.1z" class="st0"/>
  <path d="M-232 759.9c.6-1.7 1-2.7 1-2.7h-.1s-.1 0-.2-.1c-.6-.2-2-.8-3.8-1.9-3.6-2.1-8.6-6-12.2-12.3-2.3-4-3.9-9-4.3-15.2-.2-3.1.1-6.1.7-8.8v-.1c.2-.9.4-1.7.7-2.6 3.2-10.4 10.7-17.2 13.7-19.5l1.2-.9s-9.6-14.9-27.7-14.9c-15.6 0-21.4 7-29.7 7-10.2 0-11.8-6.5-26.9-6.5-7.8 0-18.7 3-26.8 13.5-6.4 8.2-8.8 17.9-9.8 25-.6 4.8-.8 10-.2 15.8 0 .4.1.8.1 1.3.6 5.8 2.1 12 4.2 18.2 0 .1.1.3.2.4.2.7.5 1.5.8 2.2.1.3.3.7.4 1 .1.3.2.7.4 1 2 5.2 4.3 10.2 7 14.9 7.8 13.8 17.9 24.2 27.4 24.2 10.8 0 14.2-7 25-6.9 13.7.1 17.5 8.8 29 6.5 7.7-1.5 16.9-12.4 22.8-22.8.2-.4.4-.7.6-1 2.8-6 5.2-11.6 6.5-14.8z" class="st0"/>
</svg>