<?xml version="1.0" standalone="no"?><!DOCTYPE svg PUBLIC "-//W3C//DTD SVG 1.1//EN" "http://www.w3.org/Graphics/SVG/1.1/DTD/svg11.dtd"><svg t="1697298527031" class="icon" viewBox="0 0 1024 1024" version="1.1" xmlns="http://www.w3.org/2000/svg" p-id="1752" data-darkreader-inline-fill="" xmlns:xlink="http://www.w3.org/1999/xlink" width="200" height="200"><path d="M879.502 865.663c13.524 0 24.5 10.553 24.5 23.595v47.139c-0.167 6.43-2.843 12.529-7.438 16.954-4.595 4.425-10.733 6.814-17.062 6.649h-661.5c-54.145 0-98-42.22-98-94.337V158.328c0-52.117 43.855-94.328 98-94.328h196v447.996c0 5.077 1.715 10.055 4.9 14.136 7.699 9.567 20.997 12.24 31.703 6.372l2.597-1.643 156.8-113.193 156.8 113.193a25.159 25.159 0 0 0 14.7 4.729c12.134 0.283 22.576-8.66 24.353-20.857l0.147-2.737V64h73.5c13.524 0 24.5 10.553 24.5 23.594v660.197c-0.305 12.262-9.63 22.334-21.658 23.395l-2.842 0.199h-612.5c-27.048 0-49 21.106-49 47.14 0 26.033 21.952 47.138 49 47.138h612.5z" fill="#2075CC" p-id="1753" data-darkreader-inline-fill="" style="--darkreader-inline-fill: #1a5ea3;"></path><path d="M709.246 64c13.524 0 24.5 9.557 24.5 21.354v281.569c0 11.797-10.976 21.354-24.5 21.354a26.98 26.98 0 0 1-14.7-4.28l-84.544-38.33-85.336 38.379c-10.969 7.057-25.313 5.287-34.3-4.231a19.587 19.587 0 0 1-4.9-12.843V85.404c0-11.797 10.976-21.354 24.5-21.354l199.28-0.05z" fill="#FA8B14" p-id="1754" data-darkreader-inline-fill="" style="--darkreader-inline-fill: #bf6504;"></path></svg>