<svg xmlns="http://www.w3.org/2000/svg" xmlns:xlink="http://www.w3.org/1999/xlink" viewBox="0,0,256,256" width="48px" height="48px" fill-rule="nonzero"><g fill="#1fb141" fill-rule="nonzero" stroke="none" stroke-width="1" stroke-linecap="butt" stroke-linejoin="miter" stroke-miterlimit="10" stroke-dasharray="" stroke-dashoffset="0" font-family="none" font-weight="none" font-size="none" text-anchor="none" style="mix-blend-mode: normal"><g transform="scale(10.66667,10.66667)"><path d="M11.13477,1.01758c-0.26304,-0.01259 -0.528,-0.00875 -0.79687,0.01563c-2.22436,0.20069 -4.00167,1.76087 -4.72852,3.78711c-1.71233,0.35654 -3.1721,1.4837 -3.9375,3.13672c-0.93789,2.02626 -0.47459,4.34393 0.91602,5.98633c-0.54761,1.66188 -0.30311,3.49222 0.74414,4.98047c1.28618,1.82589 3.52649,2.58282 5.64453,2.19922c1.16501,1.30516 2.87196,2.00816 4.68555,1.84375c2.22436,-0.20069 4.00167,-1.76087 4.72852,-3.78711c1.71233,-0.35654 3.1721,-1.4837 3.9375,-3.13672c0.93789,-2.02626 0.47459,-4.34393 -0.91602,-5.98633c0.54761,-1.66188 0.30311,-3.49222 -0.74414,-4.98047c-1.28618,-1.82589 -3.52649,-2.58282 -5.64453,-2.19922c-0.9923,-1.11167 -2.37751,-1.78702 -3.88867,-1.85938zM11.02539,2.51367c0.89558,0.03514 1.72802,0.36002 2.4043,0.90625c-0.11306,0.05604 -0.23154,0.09454 -0.3418,0.1582l-4.50586,2.60156l-0.06445,6.05859l-1.76758,-1.04883v-4.4043c0,-2.136 1.55759,-4.04291 3.68359,-4.25391c0.19937,-0.01975 0.39689,-0.02523 0.5918,-0.01758zM16.125,4.25586c1.27358,0.00756 2.51484,0.5693 3.29297,1.6543c0.65289,0.90943 0.89227,1.99184 0.72852,3.03711c-0.10521,-0.07002 -0.19816,-0.15303 -0.30859,-0.2168l-4.50586,-2.60156l-5.2793,2.97461l0.02344,-2.05469l3.81445,-2.20117c0.69375,-0.4005 1.47022,-0.59633 2.23438,-0.5918zM5.2832,6.47266c-0.008,0.12587 -0.0332,0.24774 -0.0332,0.375v5.20312l5.21484,3.08594l-1.79102,1.00586l-3.81445,-2.20312c-1.85,-1.068 -2.7218,-3.37236 -1.8418,-5.31836c0.46198,-1.02041 1.27879,-1.76751 2.26562,-2.14844zM15.32617,7.85742l3.81445,2.20313c1.85,1.068 2.72375,3.37236 1.84375,5.31836c-0.46209,1.02065 -1.28043,1.7676 -2.26758,2.14844c0.008,-0.12587 0.0332,-0.24774 0.0332,-0.375v-5.20312l-5.21484,-3.08594zM12.02539,9.71094l1.96875,1.16797l-0.02734,2.28906l-1.99219,1.11914l-1.96875,-1.16601l0.02539,-2.28906zM15.48242,11.76172l1.76758,1.04883v4.4043c0,2.136 -1.55759,4.04291 -3.68359,4.25391c-1.11547,0.1105 -2.17264,-0.22356 -2.99609,-0.88867c0.11306,-0.05604 0.23154,-0.09454 0.3418,-0.1582l4.50586,-2.60156zM13.94727,14.89648l-0.02344,2.05469l-3.81445,2.20117c-1.85,1.068 -4.28234,0.6735 -5.52734,-1.0625c-0.65289,-0.90943 -0.89227,-1.99184 -0.72852,-3.03711c0.10521,0.07003 0.19816,0.15303 0.30859,0.2168l4.50586,2.60156z"></path></g></g></svg>