<svg version="1.1" xmlns="http://www.w3.org/2000/svg" fill-rule="evenodd" clip-rule="evenodd" height="1024" width="1024" viewBox="0 0 1024 1024"><path d="M0 35.275034C0 15.783724 15.783724 0 35.275034 0H423.724138c19.49131 0 35.275034 15.783724 35.275034 35.275034V423.724138a35.275034 35.275034 0 0 1-35.275034 35.275034H35.310345A35.275034 35.275034 0 0 1 0 423.759448V35.310345z m564.965517 0c0-19.49131 15.783724-35.275034 35.275035-35.275034H988.689655c19.49131 0 35.275034 15.783724 35.275035 35.275034V423.724138a35.275034 35.275034 0 0 1-35.275035 35.275034H600.275862a35.275034 35.275034 0 0 1-35.275034-35.275034V35.310345z m-564.965517 564.965518C0 580.749241 15.783724 564.965517 35.275034 564.965517H423.724138c19.49131 0 35.275034 15.783724 35.275034 35.275035V988.689655a35.275034 35.275034 0 0 1-35.275034 35.275035H35.310345A35.275034 35.275034 0 0 1 0 988.724966V600.275862z m105.931034 106.072276v176.339862A35.169103 35.169103 0 0 0 141.34731 918.068966h176.339862A35.169103 35.169103 0 0 0 353.103448 882.65269v-176.339862A35.169103 35.169103 0 0 0 317.687172 670.896552H141.34731A35.169103 35.169103 0 0 0 105.931034 706.312828z m564.965518-564.965518v176.339862A35.169103 35.169103 0 0 0 706.312828 353.103448h176.339862A35.169103 35.169103 0 0 0 918.068966 317.687172V141.34731A35.169103 35.169103 0 0 0 882.65269 105.931034h-176.339862A35.169103 35.169103 0 0 0 670.896552 141.34731z m-564.965518 0v176.339862A35.169103 35.169103 0 0 0 141.34731 353.103448h176.339862A35.169103 35.169103 0 0 0 353.103448 317.687172V141.34731A35.169103 35.169103 0 0 0 317.687172 105.931034H141.34731A35.169103 35.169103 0 0 0 105.931034 141.34731zM564.965517 600.240552A35.204414 35.204414 0 0 1 600.275862 564.965517c19.49131 0 35.310345 15.642483 35.310345 35.275035v35.380965A35.204414 35.204414 0 0 1 600.275862 670.896552c-19.49131 0-35.310345-15.642483-35.310345-35.275035v-35.380965z m0 176.692965A35.275034 35.275034 0 0 1 600.275862 741.517241c19.49131 0 35.310345 15.465931 35.310345 35.416276v176.339862A35.275034 35.275034 0 0 1 600.275862 988.689655c-19.49131 0-35.310345-15.465931-35.310345-35.416276v-176.339862z m176.551724-176.551724A35.275034 35.275034 0 0 1 776.827586 564.965517c19.49131 0 35.310345 15.465931 35.310345 35.416276v176.339862A35.275034 35.275034 0 0 1 776.827586 812.137931c-19.49131 0-35.310345-15.465931-35.310345-35.416276v-176.339862z m176.551725 176.551724A35.275034 35.275034 0 0 1 953.37931 741.517241c19.49131 0 35.310345 15.465931 35.310345 35.416276v176.339862A35.275034 35.275034 0 0 1 953.37931 988.689655c-19.49131 0-35.310345-15.465931-35.310344-35.416276v-176.339862z m0-176.692965A35.204414 35.204414 0 0 1 953.37931 564.965517c19.49131 0 35.310345 15.642483 35.310345 35.275035v35.380965A35.204414 35.204414 0 0 1 953.37931 670.896552c-19.49131 0-35.310345-15.642483-35.310344-35.275035v-35.380965z m-176.551725 317.793103A35.204414 35.204414 0 0 1 776.827586 882.758621c19.49131 0 35.310345 15.642483 35.310345 35.275034v35.380966A35.204414 35.204414 0 0 1 776.827586 988.689655c-19.49131 0-35.310345-15.642483-35.310345-35.275034v-35.380966z" fill="#508CEE" data-darkreader-inline-fill="" style="--darkreader-inline-fill: #0f4397;"></path></svg>